<svg xmlns="http://www.w3.org/2000/svg" width="1000.000000pt" height="315.000000pt" version="1.0" viewBox="0 0 1000.000000 315.000000"><path d="M1.9 4.8C7.5 24 27.8 45.1 54.1 59c23.8 12.4 69.7 27.6 97.9 32.2 6.8 1.1 8.3 1.8 16 7.5 9.8 7.3 31.2 18.5 45 23.6 36.7 13.7 79.8 18.1 125 12.8 23.6-2.7 49-2.2 66.2 1.4 6.9 1.4 20.8 7.1 20.8 8.5 0 1.8-2.3 7-3.1 7-.5 0-1.6-1.1-2.5-2.5-1.6-2.5-11.5-7.9-16.7-9.1-2.5-.6-2.2-.1 2.8 4.7 3.2 3 7.1 7.7 8.7 10.6 1.6 2.9 3.8 5.5 4.9 5.8 1.4.5 1.9 1.6 1.9 4.3 0 4.6 3.7 12.6 7.9 17.4 5.1 5.9 11.7 9.3 27.3 14.2 11.6 3.6 16.2 5.6 22 9.6 8 5.4 14.4 11.1 19.8 17.7l3.5 4.3 4.2-5.5c5.6-7.2 18.1-17 26.8-21.1 3.9-1.8 11.3-4.4 16.5-5.9 12-3.5 16-5.5 22.2-11.3 5.7-5.3 9.6-12.2 10.4-18.6.4-2.5 1.3-4.7 2-5 .7-.3 2.3-2.4 3.5-4.7 1.1-2.3 4.9-7 8.2-10.5 5.1-5.2 5.8-6.2 3.7-5.7-5.3 1.2-11.7 4.5-15.2 8l-3.7 3.6-1.4-3.4c-.8-1.9-1.2-3.8-.9-4.3.9-1.6 12.7-6.4 19.8-8 17.1-3.8 50.9-4 75.1-.4 11.8 1.7 46.4 1.4 61.8-.6 39-5.1 74.8-18.5 101.4-38.1 6-4.4 7.1-4.8 20.6-7.6 27.4-5.5 61.2-16.5 84.2-27.4 26.8-12.7 46.7-30.2 55.9-49.1 5.4-11.2 4.5-11.6-5.1-2.5-19.5 18.4-48.7 33.9-89 47.1-37.3 12.2-87.3 21.2-143.5 25.6-36.8 3-111 2.3-141.5-1.2l-5-.6-23 17.6c-14.9 11.3-23.2 17.1-23.6 16.3-1.4-2.7-1.9-10.8-1-16.3 1.3-8.2 4.6-16.4 9.2-23.2l3.9-5.7-8.2-7.7-8.3-7.8H441.1l-8 7.2c-4.3 4-8 7.7-8 8.1-.1.5 1 2.3 2.3 4 6.2 8.4 10.6 20.8 10.6 30.3 0 7.2-.9 12.6-2.1 12.2-.4-.2-11-8.1-23.5-17.6l-22.7-17.3-11.6 1c-51.2 4.7-116.7 3.5-171.6-2.9C115.8 69.3 45.9 44.5 10 10.4 2.4 3.1 1.2 2.3 1.9 4.8zm556.3 64.9c4.1 4.1 4.6 4.9 3.6 6.7-.6 1.2-2.2 5-3.4 8.6-2.3 6.4-2.3 6.5-2.3 2.5 0-2.2.4-5.9.9-8.3 1-4 .8-4.4-1.7-6.7l-2.8-2.4-51.2-.1h-51.2l-2.6 2.3c-2.5 2.1-2.6 2.5-1.6 6.7.6 2.5 1 6.3 1 8.5 0 4.5-.1 4.5-4.5-6.9l-2.7-6.9 4.6-4.4 4.6-4.3h104.5l4.8 4.7zm-55.2 30-.1 11.8-1.9-3.6c-3-5.7-10.5-12.4-18.3-16.3l-7.2-3.5 13.8-.1H503v11.7zm35.9 23.5c7.9 19.4 14.6 35.9 14.8 36.5.4 1-1.4 1.3-7 1.3-6.2 0-7.6-.3-8.2-1.8-.4-.9-4-10.5-8.1-21.2-6.1-15.8-8.2-20.1-10.9-22.8-3.6-3.3-7.1-4-10.5-2.2-1.7.9-1.4-.3 1.7-8.7 1.9-5.4 4-11.3 4.6-13.1.9-2.9 1.4-3.2 5.1-3.2h4.2l14.3 35.2zM462 100.4c0 2.9 5.5 7.9 19.3 17.3 17.4 11.8 19.3 13.5 22.3 19.8 2.8 5.8 3 11.8.8 17.5l-1.6 4-2.4-4.9c-2.1-4.2-4.3-6.2-15-13.8-23-16.2-24.3-17.2-26.4-21.3-2.4-4.8-2.6-11.7-.3-16.5 1.7-3.6 3.3-4.6 3.3-2.1zm-1.1 41.4c3.4 6.6 11.3 13 21.6 17.4l4 1.7h-14.2l-14.3.1v-11.5c0-6.3.2-11.5.5-11.5.2 0 1.3 1.7 2.4 3.8zM444 171.3c5.2 4.4 9.6 6.3 23 9.7 11.7 3.1 24.7 8.5 31.2 13.1l2.9 2.1 3.2-2.5c8.5-6.5 20.3-10.9 35.7-13.3 5.8-.9 11.7-2.2 13.1-3 4.1-2.1 10.4-9.8 11.9-14.6 1.7-5.7 2.5-3.1 1 3.2-1.4 6-5.6 11.9-10.3 14.9-1.9 1.1-7 2.8-11.3 3.7-18.7 3.7-29.5 8.3-38.4 16.2l-4.4 3.9-5-3.9C488 194 470 186.3 456 183.5c-10.6-2.1-20-12.4-20-21.7 0-3.2.1-3.2 2.4 1.7 1.3 2.8 3.8 6.3 5.6 7.8z"/><path d="M29.5 62.5c10.2 9.3 22.4 17.4 36 24 26.5 12.8 51.7 18.4 83 18.5h15.9l-3.8-3.9c-3.6-3.7-4.1-3.9-11.9-4.5-38-3.1-81.8-16.2-114.2-34.1-5.4-3-10.2-5.5-10.5-5.5-.3.1 2.2 2.5 5.5 5.5zM975.5 57.9c-2.4 2.3-25.2 13.5-37.9 18.6-24.9 10-54 17.1-79.8 19.7-12.8 1.2-12.8 1.2-16.4 4.9l-3.6 3.6 5.4.7c6.6.8 32.4-.9 43.5-2.8 25-4.5 47.8-13.1 66.8-25.4 6.8-4.4 20.9-15.6 23.5-18.6 1.3-1.7 0-2.2-1.5-.7zM60.7 97.7c1 .8 6.6 3.8 12.5 6.9 12.9 6.6 30.9 12.7 43.7 14.8 17.2 2.9 41.7 1.7 58.6-2.7l5-1.3-5.5-3.2c-3.4-2-6.3-3-7.6-2.7-6.6 1.5-17.5 2.5-29.4 2.5-21.3 0-43-3.8-66.3-11.4-7.1-2.3-12.1-3.6-11-2.9zM932 100.1c-11.3 4-30 8.5-43.1 10.4-13.3 1.9-37.7 1.9-48.4 0l-7.9-1.4-5.5 3.2-5.6 3.1 4.3 1.3c11.5 3.3 24.3 4.6 41.5 4 15.1-.4 18.6-.8 28.7-3.5 15-4 31-10.7 43.2-18.2 4.4-2.6 3-2.4-7.2 1.1z"/><path d="M181.5 120.8c-13.5 7.1-47.6 8.9-78.8 4.1-3.8-.6-7-.9-7.3-.7-.7.8 18.2 6.7 28.6 8.9 14.9 3.2 38.8 3.3 51.1.2 8.4-2.1 22.9-7.9 22.9-9.2 0-.8-10.7-5.1-12.3-5-.6.1-2.5.8-4.2 1.7zM809 121.6c-5.1 2.3-5.4 2.6-3.6 3.9 3.5 2.6 18.8 7.5 28.4 9.1 12 2 31.6 1.3 44.7-1.4 8.9-1.9 28.9-8.2 28.2-8.8-.2-.2-5.5.3-11.9 1.1-33 4.1-59.8 2.5-74.4-4.5-4.9-2.4-4.7-2.5-11.4.6z"/><path d="M198.1 130.6c-11 6.8-26.4 10.3-46.6 10.4-12.7.1-12.9.2-9 1.6 16 6 40.5 5.7 56.9-.7 5.8-2.3 17.6-9 17.6-10 0-.7-11.2-5-12.6-4.8-.5.1-3.3 1.6-6.3 3.5zM790.8 129.2c-3.2 1.1-5.8 2.4-5.8 2.8 0 1.5 13 8.2 21.9 11.3 7.2 2.5 10.6 3.1 21.2 3.5 12.9.5 25.2-1.2 32.3-4.3 2.8-1.2 1.9-1.3-10.2-1.4-20.5-.1-38.7-4.6-49.1-12-3.4-2.5-3.1-2.5-10.3.1zM220.5 136.1c-3.2 3.4-13.2 9.6-19.3 11.9-3.1 1.2-9.3 2.5-13.7 2.9l-8 .7 7.4 2.3c15.1 4.8 30.9 1.1 42.6-10 3-2.9 5.5-5.5 5.5-6 0-.7-9.6-3.9-11.7-3.9-.6 0-1.8.9-2.8 2.1zM772.3 135.7c-2.9.9-5.3 1.9-5.3 2.3 0 2 11.8 11.5 17.7 14.3 6.4 3 7.5 3.2 17.8 3.2 8.6-.1 11.9-.5 15-2l4-1.9-7.5-.7c-11.8-1.1-25.1-7.1-32-14.4-2.7-2.9-2.7-2.9-9.7-.8zM237.1 142.4c-2.9 4.7-11.4 12.2-17 15.1l-4.6 2.3 4 1.1c13 3.6 23.1-1.4 29.1-14.4 2.7-5.6 2.7-5.6-5.2-6.9-4-.7-4.3-.6-6.3 2.8zM358.3 139.7l-3.2.4 4 3.6c5 4.5 7.2 8.7 6.7 12.4-.4 2.7-.2 2.9 2.9 2.9 8.8 0 9.8-5.3 2.7-14.3-4.8-6-4.9-6-13.1-5zM375.3 144.9c5.6 5.9 8.3 10.4 7.1 12.2-.8 1.4 6 1.1 8.1-.4 1.5-1.2 1.6-1.8.7-4.6-.6-1.8-3-5.5-5.3-8.2-4.1-4.9-4.1-4.9-10.1-4.9h-6.1l5.6 5.9zM391.3 145.9c3.7 3.8 7.1 8 7.7 9.5.7 2 1.6 2.6 4 2.6 6 0 5.3-5.2-1.7-12.7-4.5-4.8-5.2-5.2-10.7-5.8l-6-.6 6.7 7zM610.4 139.9c-5.9.7-7.1 1.6-12 8.2-4.4 6.1-4.3 9.3.3 9.7 2.8.3 3.4-.1 5.1-3.5 1.1-2.1 4.5-6.2 7.6-9.1 5.4-5.2 6.4-6.3 4.9-6.1-.5.1-3.1.5-5.9.8zM615.6 144.7c-7 8.8-7 13.3-.1 13.3 2.9 0 3.4-.4 4-3.1.4-1.7 3.3-5.8 6.7-9.5l6-6.4H620l-4.4 5.7zM632.3 143.2c-4.7 5-6.3 7.7-6.3 11.1 0 2.9 1.5 4.2 5.4 5 4.2.7 5.4 0 4.8-2.9-.7-3.7 1.6-8.1 6.6-12.4l4.5-4h-4.1c-2.2 0-4.6-.2-5.4-.5-.7-.3-3.2 1.3-5.5 3.7zM755.3 140.3l-4.3 1.2 2.4 5c4.9 10.6 11.6 15.5 20.9 15.5 3 0 6.9-.5 8.6-1.1l3.3-1.2-5.4-2.9c-5.9-3.2-12.8-9.6-15.9-14.6-2.2-3.4-3.1-3.6-9.6-1.9zM344.3 140.7c-1.8.2-3.3.8-3.3 1.2 0 .4 1.6 2.3 3.6 4.2 4.3 4.1 6.4 7.9 6.4 11.4 0 2.1.5 2.5 3 2.5 3.9 0 7.3-3.3 6.5-6.3-.4-1.2-2.4-4.7-4.4-7.7-4-5.7-5-6.2-11.8-5.3zM646.7 144.8c-5.2 6.9-6.4 10.7-4.2 13.2 1.1 1.2 3.1 2 5.2 2 2.9 0 3.3-.3 3.3-2.6 0-3.5 1.5-6.2 6.2-11 2.2-2.3 3.6-4.4 3.1-4.7-.4-.2-2.8-.7-5.3-1.1-4.5-.7-4.6-.6-8.3 4.2zM252.5 148.7c-1.3 4.9-2.9 7.8-5.7 10.9l-3.9 4.3 4.5.6c5.6.9 9.4 0 12.4-2.8 2.5-2.3 5.2-10.3 5.2-15.3 0-2.9-.3-3.2-3.7-3.8-6.9-1.1-6.9-1.1-8.8 6.1zM329.3 142.7c-1.8.2-3.3.7-3.3.9 0 .3 1.5 2.4 3.4 4.7 4.3 5.4 5.6 8 5.6 11.2 0 2.4.3 2.6 3.7 2.3 2.5-.2 4.2-1.1 5.6-3 1.8-2.4 1.9-3 .6-6-.7-1.8-2.9-5-4.7-7-3.4-3.8-4-3.9-10.9-3.1zM662.2 145.4c-7.3 8.3-7.8 13.6-1.5 16.2 4.5 1.9 6.3 1.2 6.3-2.3.1-3.5 1.6-6.2 6.3-11.2 2.1-2.2 3.4-4.2 3-4.4-.5-.3-3.1-.8-5.9-1.2-4.9-.6-5.2-.5-8.2 2.9zM740.3 142.7c-3 .4-3.3.8-3.3 3.7 0 5.8 2.8 13.3 6.1 16 2.4 2 4.1 2.6 7.7 2.5 2.6 0 5.6-.4 6.6-.8 1.9-.7 1.9-.8-.1-2.2-3.5-2.4-7.1-8.8-8.3-14.5-1.2-5.8-.9-5.7-8.7-4.7zM268.8 150.8c.3 4.7-.1 8-1.2 10.6-.9 2.2-1.4 4.1-1.2 4.3.7.7 6 .6 8.4-.1 4.3-1.4 6.4-9.5 4.6-18.5-.6-3-.8-3.1-5.8-3.1h-5.2l.4 6.8zM282 144.2c0 .3.8 2 1.7 3.9 1.9 3.6 2.3 10.7.9 15.1-.8 2.7-.7 2.8 3 2.8 6.6-.1 10.1-4.5 9-11.2-1.1-6.8-3.2-9.8-6.9-9.8-1.7 0-4.2-.3-5.4-.6-1.3-.4-2.3-.4-2.3-.2zM313.8 144.7c-1.4.4-1.2 1 1.4 4.8 2.3 3.3 3.2 5.9 3.6 9.9.4 5.4.5 5.6 3.1 5 8-1.9 9.4-7.5 4-15.7-2.8-4.2-3.5-4.7-6.7-4.6-2.1.1-4.5.3-5.4.6zM676.1 148.8c-5.3 8.4-3.9 13.8 4 15.7 2.6.6 2.7.5 3.1-5 .4-4.1 1.3-6.7 3.5-9.9l3.1-4.4-3-.6c-6.3-1.3-7.5-.8-10.7 4.2zM714.2 144.8c-4.5.3-5.4.7-6.6 3-2.3 4.5-3 9.9-1.6 13.3 1.5 3.6 3.7 4.9 8.6 4.9 3.3 0 3.6-.2 3-2.3-1.9-6.1-1.8-9.5.3-14.2 1.2-2.6 2-4.9 1.9-4.9-.2-.1-2.7 0-5.6.2zM723.5 145.1c-1.5 2.3-1.8 12.9-.5 16 1.8 4.3 8.5 7.2 11.8 5.1 1-.7.9-1.6-.4-4.8-1.2-2.8-1.5-5.8-1.2-10.6l.5-6.8h-4.8c-2.6 0-5.1.5-5.4 1.1zM300.2 150.7c2.5 4.8 2.9 6.6 2.4 10.5l-.5 4.8h3.3c8 0 10.4-7.5 5.2-16.4-2.7-4.5-2.7-4.6-8-4.6h-5.3l2.9 5.7zM692.2 148.2c-6.2 10.4-4.3 17.8 4.7 17.8 3 0 3 0 2.5-4.8-.5-3.9-.1-5.7 2.4-10.5l2.9-5.7h-5.3c-4.8 0-5.4.2-7.2 3.2zM97.3 208.9C83.9 213.8 75.9 224 73 239.8c-1.4 7.9 0 15.9 3.7 20.2 1.3 1.6 5.5 4.6 9.2 6.5 14.3 7.5 18.1 13.3 14.3 21.8-2.5 5.7-7.1 8.3-12.5 7.3-6-1.1-7.1-4.3-5.3-14.8l.8-4.8H72.6c-5.8 0-10.6.2-10.6.4s-.7 4.1-1.6 8.7c-1.9 9.9-1.5 15.4 1.5 20.3 4.5 7.2 19.1 11.2 32.3 8.7 13-2.4 22.3-9.6 28.1-21.9 2.9-6.1 3.2-7.5 3.2-16.8 0-13.6-1.8-16.4-14.5-22.9-12.9-6.7-16.5-11.6-14.1-19.6 1.5-4.9 4.7-7.1 10.6-7.1 6.3-.1 8 1.7 8 8.7v5.5h20.4l.7-5.6c1.5-12.6-2-20.8-10.9-25-6.8-3.1-20.4-3.3-28.4-.5zM800 207.9c-8.4 2.6-14.1 7.9-18.6 17.6-3.2 6.6-15.1 53.1-16.9 65.7-2.5 16.8 6.5 24.7 26.4 23.5 15-.9 24.2-6.1 29.6-16.8 1.4-2.6 3.7-10.1 5.3-16.8l2.9-12.1H808.4l-2.3 9.2c-2.8 11.3-4.3 14.3-8.1 16.3-4.3 2.2-7.7 1.9-9.6-1-1.5-2.3-1.3-3.8 4.6-28.7 3.3-14.5 6.8-28.6 7.6-31.5 1.6-5.9 4.3-8.3 9.1-8.3 2.7 0 3.6.6 4.9 3.2 1.5 2.9 1.6 4.1.5 10.7-.7 4.1-1.5 8-1.8 8.8-.4 1 1.5 1.3 9.5 1.3 11.7 0 10.3 1.5 12.8-14.5 1.3-9 1.4-11.8.4-15.4-1.5-5.6-5.6-9.5-11.4-11-5-1.2-20.7-1.3-24.6-.2zM139.6 247.2c-5.3 21.1-9.9 40.5-10.2 43.3-1.7 14.2 6.7 23 23.1 24.2 18.6 1.4 32.5-5.8 39.1-20.2 1.3-2.9 6.5-22.3 11.4-43.1 4.9-20.9 9.2-38.9 9.5-40.2.5-2.2.5-2.2-11.8-2.2h-12.3l-9.8 40.2c-5.4 22.2-10.3 41.2-10.9 42.3-2.4 4.7-8.9 6.1-12.2 2.5-1.7-1.9-1.4-3.4 8-42.2 5.4-22.2 10-40.9 10.2-41.6.4-.9-2.4-1.2-11.9-1.2h-12.5l-9.7 38.2zM222.5 211.2c-.3 1.2-5.9 24.3-12.4 51.3l-11.8 49 18.2.3c16.5.2 18.9 0 23.9-1.8 6.9-2.6 14.9-9.7 18.2-16.1 3.8-7.6 15.4-55.7 15.4-64.1 0-9.8-2.2-13.8-9.7-17.5-5.6-2.7-6.4-2.8-23.5-3.1l-17.7-.4-.6 2.4zm27.3 18.1c2.1 1.6 1.4 8.2-2.9 25-5 20.2-8.7 32.5-10.6 35.4-1.5 2.3-8.2 4.8-9.4 3.5-.5-.6 12.9-60.5 14.5-64.7.6-1.6 6-1.1 8.4.8zM278.5 258.8c-6.5 27.3-12.1 50.5-12.3 51.5-.4 1.6 1 1.7 18.5 1.7h19l7.1-3.5c7.9-4 12.2-8.3 15.8-15.9 3-6.4 14.4-51.9 15.1-60.7 1-11.7-4.5-19.3-15.7-21.8-2.5-.6-11.5-1.1-20-1.1h-15.5l-12 49.8zm35.7-30.7c5.7 1.5 5.8 3.4.3 25.8-6 24.6-9.1 34-11.8 36.7-2.5 2.4-7.3 3.9-8.1 2.5-.5-.7 11.7-56.5 14-64.4.6-2 .7-2 5.6-.6zM343.6 259.3c-6.5 27.6-12.1 50.8-12.4 51.4-.3 1 5.2 1.3 25.6 1.3h26l2.5-10 2.5-10h-13.9c-16.2 0-15 1.3-11.7-13.3l2.1-9.7h29.6l1-3.8c.5-2 1.5-5.7 2.1-8.2.6-2.5 1.3-5.3 1.6-6.3.5-1.6-.6-1.7-14-1.7-16.8 0-15.6 1-12.7-11l1.8-7.5 15.1-.3 15.1-.3 1-3.7c2.5-9.4 4.1-16 4.1-16.6 0-.3-12-.6-26.7-.6h-26.8l-11.9 50.3zM417.6 210.7c-1.1 3.9-25.6 100-25.6 100.6 0 .4 5.3.7 11.8.7h11.9l6.4-24.8 6.4-24.7.3 24.8.2 24.7h22.6l11.7-50.7c6.5-28 11.7-51.2 11.7-51.6 0-.4-4.6-.6-10.2-.5l-10.2.3L449 234l-5.5 24.5-.3-24.8-.2-24.7h-12.5c-10.9 0-12.4.2-12.9 1.7zM545.6 211.7c-1.4 2.8-44.4 96.7-45.3 99.1-.4 1 2 1.2 11.1 1l11.7-.3 4.2-9.5 4.3-9.5 13.7-.3 13.7-.3V312h19V209h-30.9l-1.5 2.7zM559 252v22h-10.1c-9 0-10-.2-9.5-1.7 1.5-3.9 19-42.3 19.3-42.3.2 0 .3 9.9.3 22zM586.2 218.2c-1.2 5.1-2.2 9.9-2.2 10.5 0 1 3.3 1.3 13 1.3 9.8 0 13 .3 13 1.2-.1.7-4.5 19.2-9.9 41.1l-9.8 39.8 12.1-.3 12.1-.3 9.6-40.5 9.6-40.5 14.5-.3c13.6-.2 14.6-.1 14.2 1.5-.2 1-4.6 19.5-9.8 41l-9.3 39.3h12.4c6.7 0 12.3-.1 12.3-.3 0-.1 4.2-18.4 9.4-40.7l9.3-40.5 12.6-.3 12.6-.3 1.1-3.9c1.1-4.4 2.5-10 3.4-14.3l.6-2.7H588.4l-2.2 9.2zM727.1 210.7c-.9 1.8-44.9 97.8-45.8 100.1-.4 1 2 1.2 11.2 1l11.7-.3 4.2-9.5 4.2-9.5 13.7-.3 13.7-.3V312h19V209h-15.5c-13.7 0-15.5.2-16.4 1.7zM740 252v22h-10.1c-9.2 0-10.1-.2-9.4-1.8 1.3-3.5 19-42.2 19.2-42.2.2 0 .3 9.9.3 22zM850.9 209.2c0 .2-5.5 23.2-12.3 51.3l-12.2 51 12 .3c6.5.1 12.1.1 12.3-.2.3-.3 2.8-9.8 5.7-21.3l5.2-20.7 2.6 10.9c1.4 6.1 3.6 15.6 4.9 21.2l2.4 10.3h12.3c6.7 0 12.2-.2 12.2-.5 0-.2-2.7-12-6-26.2-3.4-14.2-5.9-26.5-5.7-27.3.2-.9 7.7-12 16.6-24.7 8.8-12.8 16.1-23.4 16.1-23.7 0-.3-5.4-.6-11.9-.6h-11.9l-13.7 21c-7.6 11.6-13.9 20.9-14.1 20.8-.2-.2 5-23.2 9-40.1.4-1.5-.7-1.7-11.5-1.7-6.5 0-11.9.1-12 .2z"/></svg>